<?xml version="1.0" standalone="no"?>
<!DOCTYPE svg PUBLIC "-//W3C//DTD SVG 20010904//EN"
 "http://www.w3.org/TR/2001/REC-SVG-20010904/DTD/svg10.dtd">
<svg version="1.0" xmlns="http://www.w3.org/2000/svg"
 width="1000.000000pt" height="441.000000pt" viewBox="0 0 1000.000000 441.000000"
 preserveAspectRatio="xMidYMid meet">
<metadata>
Created by potrace 1.15, written by Peter Selinger 2001-2017
</metadata>
<g transform="translate(0.000000,441.000000) scale(0.100000,-0.100000)"
fill="#000000" stroke="none">
<path d="M50 3640 l0 -770 135 0 135 0 0 213 c0 309 -11 308 216 17 l179 -230
178 0 178 0 -261 325 -261 325 173 168 c95 92 203 196 241 231 37 35 67 68 67
73 0 4 -80 8 -177 8 l-178 0 -177 -177 -178 -178 0 383 0 382 -135 0 -135 0 0
-770z"/>
<path d="M2620 4205 l0 -205 -55 0 -55 0 0 -125 0 -125 55 0 55 0 0 -440 0
-440 135 0 135 0 0 440 0 440 100 0 100 0 0 125 0 125 -100 0 -100 0 0 205 0
205 -135 0 -135 0 0 -205z"/>
<path d="M1580 4023 c-159 -27 -301 -136 -381 -295 -42 -83 -59 -167 -59 -294
0 -194 51 -334 165 -450 179 -182 475 -202 670 -44 l40 32 3 -51 3 -51 135 0
134 0 0 565 0 565 -135 0 -135 0 0 -61 0 -61 -51 41 c-112 89 -253 127 -389
104z m260 -264 c155 -70 230 -272 170 -460 -44 -140 -149 -220 -289 -221 -127
-1 -233 74 -282 200 -30 75 -32 213 -6 289 33 94 104 170 184 199 59 21 170
17 223 -7z"/>
<path d="M3640 4019 c-135 -22 -280 -128 -348 -256 -96 -181 -98 -483 -5 -656
87 -161 247 -259 448 -273 161 -11 315 37 423 132 48 42 152 176 152 195 0 7
-177 111 -211 124 -10 4 -31 -17 -62 -59 -81 -110 -138 -146 -237 -149 -89 -2
-147 20 -206 77 -52 52 -94 137 -94 191 l0 25 400 0 400 0 0 80 c0 399 -270
632 -660 569z m221 -249 c49 -14 113 -71 138 -125 11 -24 21 -47 21 -50 0 -3
-113 -5 -251 -5 l-250 0 7 23 c14 48 71 112 123 139 58 30 142 37 212 18z"/>
<path d="M4810 4015 c-68 -19 -150 -74 -184 -123 -48 -70 -60 -111 -60 -207
-1 -81 2 -95 28 -143 37 -67 85 -102 252 -185 172 -86 211 -131 184 -212 -21
-64 -121 -90 -191 -49 -32 19 -92 87 -101 116 -3 9 -38 -3 -121 -41 -64 -30
-117 -57 -117 -61 0 -16 75 -129 108 -163 49 -50 142 -95 226 -109 181 -30
369 60 443 211 25 50 28 67 28 161 0 91 -3 112 -24 154 -32 65 -110 121 -289
207 -110 54 -147 76 -161 100 -25 41 -11 86 32 104 48 20 94 0 132 -57 l26
-39 107 57 c59 31 109 59 112 61 9 8 -37 80 -83 129 -29 31 -68 61 -99 74 -66
28 -175 35 -248 15z"/>
<path d="M6005 4023 c-211 -28 -405 -181 -481 -379 -22 -56 -28 -91 -32 -184
-8 -203 35 -320 166 -450 125 -124 251 -174 442 -174 108 0 172 13 273 56 l47
20 0 179 0 179 -67 -69 c-77 -77 -123 -105 -206 -120 -172 -32 -328 72 -373
249 -43 168 25 337 168 416 49 27 61 29 153 29 123 0 159 -16 258 -116 l67
-69 0 181 0 180 -54 24 c-100 44 -245 63 -361 48z"/>
<path d="M7080 4015 c-110 -25 -205 -79 -291 -164 -123 -122 -169 -236 -169
-416 0 -183 48 -305 169 -426 123 -123 243 -173 421 -173 189 -1 315 49 440
173 120 119 170 242 170 421 0 168 -47 291 -154 406 -72 78 -161 135 -256 165
-87 27 -243 34 -330 14z m299 -270 c111 -61 166 -168 165 -320 -2 -211 -126
-347 -318 -348 -173 -1 -293 98 -326 271 -31 154 22 304 134 380 66 44 97 52
201 49 78 -3 97 -7 144 -32z"/>
<path d="M8535 4021 c-49 -13 -97 -41 -137 -79 l-38 -36 0 47 0 47 -135 0
-135 0 0 -565 0 -565 135 0 135 0 0 333 c0 354 6 411 51 483 49 80 161 103
252 52 l48 -27 62 125 c70 140 71 129 -23 165 -59 23 -166 33 -215 20z"/>
<path d="M9330 4019 c-135 -22 -280 -128 -348 -256 -96 -181 -98 -483 -5 -656
87 -161 247 -259 448 -273 161 -11 315 37 423 132 48 42 152 176 152 195 0 7
-177 111 -211 124 -10 4 -31 -17 -62 -59 -81 -110 -138 -146 -237 -149 -89 -2
-147 20 -206 77 -52 52 -94 137 -94 191 l0 25 400 0 400 0 0 80 c0 399 -270
632 -660 569z m221 -249 c49 -14 113 -71 138 -125 11 -24 21 -47 21 -50 0 -3
-113 -5 -251 -5 l-250 0 7 23 c14 48 71 112 123 139 58 30 142 37 212 18z"/>
<path d="M330 2020 c-112 -24 -210 -103 -246 -198 -15 -40 -18 -92 -22 -349
l-4 -303 -29 0 -29 0 0 -125 0 -125 30 0 30 0 0 -440 0 -440 135 0 135 0 0
440 0 440 140 0 140 0 0 125 0 125 -140 0 -140 0 0 236 c0 247 8 310 42 341
31 27 111 23 175 -10 29 -15 55 -27 58 -27 3 0 5 63 5 140 l0 139 -52 16 c-67
20 -170 27 -228 15z"/>
<path d="M845 1777 c-58 -33 -87 -88 -82 -160 7 -114 108 -186 219 -157 118
32 165 186 85 277 -58 66 -148 82 -222 40z"/>
<path d="M1400 1375 l0 -205 -55 0 -55 0 0 -125 0 -125 55 0 55 0 0 -440 0
-440 135 0 135 0 0 440 0 440 100 0 100 0 0 125 0 125 -100 0 -100 0 0 205 0
205 -135 0 -135 0 0 -205z"/>
<path d="M2505 1185 c-27 -8 -53 -14 -57 -15 -4 0 -36 -20 -72 -45 l-66 -45 0
45 0 45 -135 0 -135 0 0 -565 0 -565 134 0 134 0 4 358 c5 381 8 412 58 482
50 70 190 98 277 53 88 -45 102 -128 103 -600 l0 -293 135 0 135 0 0 348 c0
519 -14 597 -119 703 -40 40 -73 62 -116 78 -77 29 -210 37 -280 16z"/>
<path d="M3700 1189 c-135 -22 -280 -128 -348 -256 -96 -181 -98 -483 -5 -656
87 -161 247 -259 448 -273 161 -11 315 37 423 132 48 42 152 176 152 195 0 7
-177 111 -211 124 -10 4 -31 -17 -62 -59 -81 -110 -138 -146 -237 -149 -89 -2
-147 20 -206 77 -52 52 -94 137 -94 191 l0 25 400 0 400 0 0 80 c0 399 -270
632 -660 569z m221 -249 c49 -14 113 -71 138 -125 11 -24 21 -47 21 -50 0 -3
-113 -5 -251 -5 l-250 0 7 23 c14 48 71 112 123 139 58 30 142 37 212 18z"/>
<path d="M4870 1185 c-68 -19 -150 -74 -184 -123 -48 -70 -60 -111 -60 -207
-1 -81 2 -95 28 -143 37 -67 85 -102 252 -185 172 -86 211 -131 184 -212 -21
-64 -121 -90 -191 -49 -32 19 -92 87 -101 116 -3 9 -38 -3 -121 -41 -64 -30
-117 -57 -117 -61 0 -16 75 -129 108 -163 49 -50 142 -95 226 -109 181 -30
369 60 443 211 25 50 28 67 28 161 0 91 -3 112 -24 154 -32 65 -110 121 -289
207 -110 54 -147 76 -161 100 -25 41 -11 86 32 104 48 20 94 0 132 -57 l26
-39 107 57 c59 31 109 59 112 61 9 8 -37 80 -83 129 -29 31 -68 61 -99 74 -66
28 -175 35 -248 15z"/>
<path d="M5830 1185 c-68 -19 -150 -74 -184 -123 -48 -70 -60 -111 -60 -207
-1 -81 2 -95 28 -143 37 -67 85 -102 252 -185 172 -86 211 -131 184 -212 -21
-64 -121 -90 -191 -49 -32 19 -92 87 -101 116 -3 9 -38 -3 -121 -41 -64 -30
-117 -57 -117 -61 0 -16 75 -129 108 -163 49 -50 142 -95 226 -109 181 -30
369 60 443 211 25 50 28 67 28 161 0 91 -3 112 -24 154 -32 65 -110 121 -289
207 -110 54 -147 76 -161 100 -25 41 -11 86 32 104 48 20 94 0 132 -57 l26
-39 107 57 c59 31 109 59 112 61 9 8 -37 80 -83 129 -29 31 -68 61 -99 74 -66
28 -175 35 -248 15z"/>
<path d="M800 605 l0 -565 135 0 135 0 0 565 0 565 -135 0 -135 0 0 -565z"/>
</g>
</svg>
