<svg width="580" height="400" xmlns="http://www.w3.org/2000/svg">
 <!-- Created with Method Draw - http://github.com/duopixel/Method-Draw/ -->

 <g>
  <title>background</title>
  <rect fill="#fff" id="canvas_background" height="402" width="582" y="-1" x="-1"/>
  <g display="none" overflow="visible" y="0" x="0" height="100%" width="100%" id="canvasGrid">
   <rect fill="url(#gridpattern)" stroke-width="0" y="0" x="0" height="100%" width="100%"/>
  </g>
 </g>
 <g>
  <title>Layer 1</title>
  <metadata transform="matrix(0.10100815857187229,0,0,0.10100815857187229,0,0) " id="svg_31">image/svg+xml</metadata>

  <g stroke="null" id="svg_33">
   <g stroke="null" transform="matrix(1.637068321383826,0,0,1.637068321383826,-49.721531634459524,-2884.0345514810924) " id="svg_18">
    <path stroke="null" fill="#f59600" fill-rule="evenodd" d="m377.85187,1878.914677c-0.426,-1.0621 -1.0043,-1.9981 -1.7322,-2.804c-0.7308,-0.8051 -1.5738,-1.4361 -2.532,-1.893c-0.9581,-0.4552 -1.9839,-0.6832 -3.0801,-0.6832c-1.0927,0 -2.1268,0.228 -3.0988,0.6832c-0.9751,0.4569 -1.8111,1.0879 -2.5101,1.893c-0.699,0.8059 -1.254,1.7419 -1.6639,2.804c-0.4099,1.067 -0.6151,2.2059 -0.6151,3.422c0,1.186 0.2049,2.3108 0.6151,3.3749c0.4101,1.065 0.9649,1.9931 1.6639,2.7819c0.6993,0.7912 1.535,1.414 2.5101,1.8712c0.972,0.455 2.0058,0.6829 3.0988,0.6829c1.0962,0 2.122,-0.2279 3.0801,-0.6829c0.9582,-0.4572 1.8009,-1.08 2.532,-1.8712c0.7282,-0.7888 1.3062,-1.7169 1.7319,-2.7819c0.4261,-1.0641 0.6392,-2.1889 0.6392,-3.3749c0,-1.2161 -0.2131,-2.355 -0.6392,-3.422l0.0003,0zm4.5159,15.0979l-3.7398,0l0,-3.7851c-0.8212,1.2172 -1.9482,2.2501 -3.3752,3.1c-1.4301,0.8512 -3.0101,1.2792 -4.7452,1.2792c-1.7027,0 -3.2669,-0.32 -4.697,-0.9592c-1.4298,-0.6389 -2.668,-1.5199 -3.7168,-2.647c-1.0479,-1.1228 -1.8711,-2.431 -2.463,-3.9209c-0.591,-1.489 -0.8881,-3.0861 -0.8881,-4.79c0,-1.701 0.2971,-3.304 0.8881,-4.8101c0.5922,-1.506 1.4151,-2.8128 2.463,-3.922c1.0491,-1.1089 2.287,-1.9919 3.7168,-2.6458c1.4304,-0.6551 2.9943,-0.9811 4.697,-0.9811c1.7042,0 3.2471,0.4039 4.629,1.209c1.3853,0.807 2.5021,1.7849 3.3542,2.9409l0,-14.0009l3.877,0l0,33.933zm-26.3619,0l-3.8759,0l0,-33.933l3.8759,0l0,33.933zm-15.4061,-3.695c0.959,-0.4549 1.8068,-1.0709 2.5371,-1.8482c0.733,-0.7727 1.3047,-1.6928 1.7149,-2.7578c0.4119,-1.0641 0.6188,-2.1889 0.6188,-3.3749c0.0003,-1.2161 -0.2069,-2.3633 -0.6188,-3.4433c-0.4102,-1.0797 -0.9822,-2.0157 -1.7149,-2.8068c-0.73,-0.7889 -1.5781,-1.4199 -2.5373,-1.8899c-0.9607,-0.4711 -1.99,-0.7072 -3.0878,-0.7072c-1.097,0 -2.1271,0.2361 -3.0881,0.7072c-0.9609,0.47 -1.798,1.101 -2.5149,1.8899c-0.7171,0.7911 -1.279,1.7271 -1.692,2.8068c-0.4119,1.08 -0.6171,2.2272 -0.6171,3.4433c0.0003,1.186 0.205,2.3108 0.6171,3.3749c0.413,1.065 0.9749,1.9851 1.692,2.7578c0.7169,0.7773 1.554,1.3933 2.5149,1.8482c0.9612,0.457 1.9911,0.6829 3.0881,0.6829c1.0978,0 2.1268,-0.2259 3.0878,-0.6829l0.0002,0zm1.6098,-19.4059c1.4451,0.6539 2.6913,1.5428 3.7401,2.6679c1.0491,1.1251 1.8771,2.4409 2.486,3.945c0.608,1.506 0.9121,3.109 0.9121,4.8121c0,1.7028 -0.3041,3.291 -0.9121,4.7659c-0.6089,1.4748 -1.4369,2.768 -2.486,3.8769c-1.0488,1.1092 -2.295,1.984 -3.7401,2.6232c-1.4439,0.6389 -3.0019,0.957 -4.674,0.957c-1.6716,0 -3.225,-0.3181 -4.6528,-0.957c-1.4289,-0.6392 -2.6751,-1.514 -3.74,-2.6232c-1.0639,-1.1089 -1.9001,-2.4021 -2.5081,-3.8769c-0.6089,-1.4749 -0.9119,-3.0631 -0.9119,-4.7659c0,-1.7031 0.303,-3.3061 0.9119,-4.8121c0.608,-1.5041 1.4439,-2.8199 2.5081,-3.945c1.0652,-1.1251 2.3111,-2.014 3.74,-2.6679c1.4281,-0.6551 2.9809,-0.9811 4.6528,-0.9811c1.6724,0 3.2301,0.326 4.674,0.9811zm-23.2837,8.003c-0.4252,-1.0621 -1.0021,-1.9981 -1.7323,-2.804c-0.7288,-0.8051 -1.5718,-1.4361 -2.5308,-1.893c-0.9569,-0.4552 -1.9851,-0.6832 -3.0781,-0.6832c-1.0939,0 -2.1291,0.228 -3.102,0.6832c-0.9728,0.4569 -1.809,1.0879 -2.5081,1.893c-0.7007,0.8059 -1.256,1.7419 -1.6659,2.804c-0.4099,1.067 -0.6151,2.2059 -0.6151,3.422c0.0003,1.186 0.2052,2.3108 0.6151,3.3749c0.4102,1.065 0.9649,1.9931 1.6659,2.7819c0.6991,0.7912 1.535,1.414 2.5081,1.8712c0.9732,0.455 2.0081,0.6829 3.102,0.6829c1.093,0 2.1212,-0.2279 3.0781,-0.6829c0.959,-0.4572 1.802,-1.08 2.5308,-1.8712c0.7302,-0.7888 1.3071,-1.7169 1.7323,-2.7819c0.426,-1.0641 0.6389,-2.1889 0.6389,-3.3749c0,-1.2161 -0.2132,-2.355 -0.6389,-3.422zm4.5178,14.002c0,1.8868 -0.2911,3.604 -0.8671,5.1548c-0.5777,1.55 -1.4009,2.8812 -2.463,3.9901c-1.0647,1.1089 -2.344,1.9689 -3.8319,2.5781c-1.4899,0.6069 -3.1328,0.9099 -4.926,0.9099c-2.797,0 -5.1911,-0.6891 -7.1839,-2.0741c-1.9919,-1.385 -3.291,-3.2749 -3.8982,-5.6778l4.0592,0c0.394,0.883 0.8958,1.588 1.5049,2.1209c0.6081,0.532 1.2541,0.936 1.9381,1.207c0.684,0.2761 1.3459,0.4569 1.9839,0.549c0.639,0.0919 1.1699,0.137 1.596,0.137c1.4901,0 2.76,-0.2679 3.8089,-0.7991c1.0482,-0.531 1.9,-1.2169 2.554,-2.0529c0.6531,-0.8359 1.1231,-1.785 1.4142,-2.8491c0.288,-1.065 0.432,-2.1268 0.432,-3.1938l0,-2.4622c-0.8521,1.156 -1.969,2.136 -3.352,2.943c-1.3822,0.805 -2.9251,1.2092 -4.6281,1.2092c-1.7039,0 -3.2701,-0.32 -4.6979,-0.9592c-1.4289,-0.6389 -2.6682,-1.5199 -3.7162,-2.647c-1.0488,-1.1228 -1.872,-2.431 -2.463,-3.9209c-0.5939,-1.489 -0.8909,-3.0861 -0.8909,-4.79c0,-1.701 0.297,-3.304 0.8909,-4.8101c0.5913,-1.506 1.4142,-2.8128 2.463,-3.922c1.0483,-1.1089 2.287,-1.9919 3.7162,-2.6458c1.4278,-0.6551 2.994,-0.9811 4.6979,-0.9811c1.7339,0 3.312,0.426 4.7441,1.277c1.4269,0.8521 2.552,1.87 3.3749,3.0569l0,-3.7398l3.74,0l0,22.392z" id="svg_30"/>
    <path stroke="null" fill="#121009" fill-rule="evenodd" d="m83.15757,1867.354477c29.0463,0 52.592,-23.5469 52.592,-52.5918c0,-29.0472 -23.5457,-52.592 -52.592,-52.592c-29.0449,0 -52.5909,23.5448 -52.5909,52.592c0,29.0449 23.546,52.5918 52.5909,52.5918z" id="svg_29"/>
    <path stroke="null" fill="#f59600" fill-rule="evenodd" d="m129.62197,1814.764677c0,25.6598 -20.8043,46.461 -46.4644,46.461c-25.6606,0 -46.463,-20.8012 -46.463,-46.461c0,-25.6621 20.8024,-46.4672 46.463,-46.4672c25.6601,0 46.4644,20.8051 46.4644,46.4672z" id="svg_28"/>
    <path stroke="null" fill="#ffffff" fill-rule="evenodd" d="m81.12857,1816.569477c0,0 5.0723,3.109 0.2942,5.0842c-4.7781,1.9698 -10.8848,0.33 -16.3264,-1.3192c-3.9915,-1.3198 -7.9847,-2.9679 -11.6127,-5.279c-2.5399,-1.6461 -4.7169,-3.297 -6.5316,-5.6049c-0.7262,-1.321 -1.4522,-2.969 -0.3634,-4.2871c1.8159,-1.321 6.9262,-2.5419 7.4052,-2.645c6.586,-1.4199 11.6606,-2.346 13.1837,-0.762c0.83,0.9652 0.1831,1.7892 -0.5567,2.01c-2.6241,0.783 -9.7164,2.5121 -13.4989,4.3631c2.539,3.299 6.8938,4.9499 10.8856,6.268c0.3623,0 3.2672,0.6579 3.9923,0.6579c5.8037,0.332 11.431,-1.3118 15.0579,3.3072l-1.9292,-1.7932z" id="svg_27"/>
    <path stroke="null" fill="#ffffff" fill-rule="evenodd" d="m96.66017,1807.051577c0.7245,0.3629 6.4933,4.7829 9.1434,8.6329c2.2062,3.2052 5.22,5.2421 6.768,4.0201c2.9681,-2.3439 -9.3799,-28.62 -9.3799,-28.62c0,0 -1.4238,-4.0969 -2.9029,-8.3449c-0.9218,-2.6492 -3.0081,-6.8661 -6.1699,-5.4442c-3.7432,1.686 -0.3623,7.2561 0.7265,10.5242c3.9912,8.7089 10.1602,15.969 13.7883,24.6759c-1.8142,-1.4519 -2.6929,-3.159 -4.7168,-5.0811c-2.604,-2.4719 -6.4219,-5.798 -10.0523,-3.9839c-3.2638,1.4511 -2.5996,6.0959 -2.2827,9.065c0.1366,2.3589 1.5877,14.669 -1.561,22.0501c-2.6059,6.461 -12.0362,13.5839 -11.4611,15.3249c-0.7271,1.8159 5.3989,3.9941 7.939,4.3549c3.2681,0.7271 5.8056,-1.0879 7.6201,-3.6289c7.2598,-13.7872 3.63,-29.029 2.5413,-43.545z" id="svg_26"/>
    <path stroke="null" fill="#ffffff" fill-rule="evenodd" d="m72.98967,1788.006477c-0.045,0.1309 -0.087,0.2642 -0.1233,0.3951c-0.0164,0.0598 -0.0317,0.1231 -0.0459,0.1829c-0.3008,1.2231 -0.2727,2.4891 0.0221,3.725c0.3121,1.461 0.9522,2.961 1.931,4.3282c2.5211,3.5218 6.3561,4.9428 8.958,3.4809c0.146,-0.0691 1.2512,-1.0179 1.4831,-1.3521c7.062,-8.219 -2.878,-18.2129 -7.8531,-15.531c-2.2827,1.2299 -3.6431,2.8202 -4.2919,4.5411c-0.0289,0.076 -0.0539,0.1539 -0.08,0.2299z" id="svg_25"/>
    <path stroke="null" fill="#121009" fill-rule="evenodd" d="m166.81367,1842.020677c10.5729,-0.7912 37.381,-9.0083 39.0169,-4.5661c1.6322,4.4411 -28.9389,15.109 -43.3228,15.109c-6.5111,0 -12.168,-3.606 -12.168,-8.4359c0,-15.107 37.249,-49.273 37.249,-52.7871c0,-1.404 -3.8112,-1.404 -5.0411,-1.404c-2.8259,0 -19.217,4.775 -24.215,5.004c-5,0.2299 -12.2281,-0.3651 -12.909,-3.9489c-0.68,-3.5842 19.9131,-11.1572 33.067,-11.1572c10.942,0 23.6081,4.5672 23.6081,13.352c0,4.0411 -30.369,40.6661 -35.2851,48.8342z" id="svg_24"/>
    <path stroke="null" fill="#121009" fill-rule="evenodd" d="m236.07677,1799.330577c-1.317,9.4031 -4.1292,18.536 -5.4462,27.936c-0.6987,5.3569 -4.568,24.2379 -11.503,24.2379c-1.4088,0 -2.8148,-0.3489 -4.2188,-0.3489c-6.4122,0 -11.5069,-30.8279 -11.5069,-36.6251c0,-9.576 0.5278,-30.391 6.7648,-37.682c0.6991,-0.0879 1.319,-0.1738 2.02,-0.1738c4.737,-0.0003 8.8659,0.8768 8.8659,6.4959l0.0003,0.879c-0.697,2.6351 -2.5412,5.6231 -3.4203,8.348c-2.4619,7.3769 -3.9569,15.1909 -3.9569,23.008c0,5.3589 0.705,10.982 3.4271,15.6359c1.6679,0.5261 3.6029,-9.1338 3.8659,-10.4488c1.935,-9.3141 3.3381,-24.332 5.9689,-32.5862c1.4103,-1.3218 0.887,-2.734 5.6251,-2.99c2.02,0 4.828,2.7249 4.828,4.7421c0,3.0759 -0.8751,6.59 -1.3139,9.572z" id="svg_23"/>
    <path stroke="null" fill="#121009" fill-rule="evenodd" d="m290.83987,1856.424577c-2.5461,0 -3.3372,-2.107 -3.6893,-4.2151c-1.6699,-8.7809 -0.7928,-18.0068 -1.9318,-26.7888c-3.4251,5.3578 -6.5021,10.891 -9.572,16.4239c-1.7601,3.1641 -5.4491,7.3769 -9.398,7.3769c-9.4011,0 -7.994,-44.7908 -8.4362,-52.5229c-8.6049,17.0428 -10.1869,31.97 -12.0328,50.5911c-1.6659,2.0239 -2.9832,3.5138 -5.6191,3.5138c-1.4899,0 -2.9869,-0.265 -4.305,-0.6148l-0.0859,-1.7541c-0.3509,-13.619 5.3601,-66.2289 23.3609,-66.2289c3.8682,0 5.8011,0.6159 8.17,3.778c3.075,4.0408 2.545,32.2339 2.897,39.1759c3.2519,-6.239 11.1561,-28.1959 19.1461,-28.1959c10.8031,0 8.0858,13.172 8.0858,20.2008c0.0003,10.889 0.8751,21.8701 0.8751,32.8482c0,2.8148 -4.83,6.4119 -7.4648,6.4119z" id="svg_22"/>
    <path stroke="null" fill="#121009" fill-rule="evenodd" d="m313.07287,1852.164377c-1.5761,0.1781 -3.1621,0.3501 -4.6522,0.3501c-1.7578,0 -7.2899,0 -7.2899,-2.7229c0,-1.23 1.2288,-2.0169 2.1098,-2.541c1.7541,-0.972 4.2151,-1.41 6.1441,-1.7589c3.2499,-0.7053 17.303,-8.17 17.303,-11.594c0,-7.9943 -17.9161,-14.2311 -17.9161,-20.0262c0.0003,-9.8371 18.5352,-20.7301 18.5352,-27.0539c0,-2.3711 -3.871,-2.457 -5.4491,-2.457c-3.5161,0 -8.7851,0.6111 -11.6841,2.6331c-0.5227,1.7529 -0.6148,3.689 -0.6148,5.5369c0,16.3341 1.1429,32.4961 2.5469,48.8319c-1.6659,0.5252 -3.3341,1.14 -5.0939,1.14c-1.0542,0 -2.459,-0.259 -2.459,-1.6679c0,-10.8901 -2.8982,-21.6929 -3.3361,-32.5859c-0.1769,-4.7441 -0.1769,-9.574 -0.525,-14.3141c-0.178,-1.9341 -0.9689,-4.0431 -0.9689,-5.9749c0,-6.7612 19.1489,-10.453 24.1529,-10.453c4.5703,0 13.1752,0.4399 13.1752,6.6758c0,7.291 -14.1381,23.9792 -20.7241,27.58c0.523,1.7561 21.869,10.4491 21.869,22.2211c0,8.7829 -17.9201,17.3049 -25.1229,18.1808z" id="svg_21"/>
    <path stroke="null" fill="#121009" fill-rule="evenodd" d="m381.82097,1852.252577c2.965,0.5919 -3.1881,-12.3729 -5.3592,-30.4761c-1.5789,-11.0671 -0.9652,-30.479 -8.2542,-39.174c-2.1977,-2.6351 -4.5709,-2.8998 -7.8188,-2.8998c-15.283,0 -20.0231,39.611 -20.0231,51.3819c0,6.3249 1.0531,12.6471 3.0719,18.707c0.7033,0.0921 1.4922,0.176 2.1932,0.176c2.1121,0 4.3049,-0.4351 6.065,-1.5781c-0.705,-4.041 -0.9672,-8.172 -0.9672,-12.2068c0.0003,-1.3221 0.0862,-2.5512 0.176,-3.867c5.4434,-0.6151 10.978,-0.9672 16.4243,-1.7561c2.3691,10.275 4.4778,16.691 14.4918,21.693l0.0003,0zm0,0zm-16.5141,-31.881c-4.7421,0.0859 -9.4822,0.44 -14.2262,0.9629c0.3492,-4.9161 2.285,-30.2978 8.871,-30.2978c1.226,-0.0003 2.105,6.1458 2.283,7.2868c1.2302,7.291 1.8459,14.6681 3.0722,22.0481z" id="svg_20"/>
    <path stroke="null" fill="#121009" fill-rule="evenodd" d="m378.98887,1783.959477c0.8478,0 1.5987,-0.0409 1.5987,-0.953c0.0003,-0.8008 -0.6789,-0.8978 -1.332,-0.8978l-1.2707,-0.0003l0,1.8511l1.004,0zm-1.94,-2.693l2.3768,0c1.3623,0 2.0959,0.5741 2.0959,1.7811c0,1.08 -0.7228,1.584 -1.656,1.684l1.7561,2.6229l-0.936,0l-1.6968,-2.5529l-1.004,0l0,2.5529l-0.936,0l0,-6.088zm6.4128,3.0181c0,-2.414 -1.9259,-4.3639 -4.3189,-4.3639c-2.3919,0 -4.316,1.9499 -4.316,4.3639c0,2.41 1.9238,4.3611 4.316,4.3611c2.393,0 4.3189,-1.9511 4.3189,-4.3611zm-4.3189,-5.205c2.9032,0 5.2501,2.3281 5.2501,5.205c0,2.8729 -2.3471,5.201 -5.2501,5.201c-2.8998,0 -5.252,-2.3281 -5.252,-5.201c0,-2.8772 2.3519,-5.205 5.252,-5.205z" id="svg_19"/>
   </g>
  </g>
  <path d="m458.249512,79.000351c-0.5,0 -0.538055,-0.191345 -1,0c-0.65329,0.270599 -1,0.5 -1.5,0.5c0,0 0,0 0,0c0.5,0 0.538055,0.191345 1,0c0.65329,-0.270599 1,-0.5 1,-0.5c0.5,0 1,0.5 1,0c0,-0.5 -0.5,0 -1,0c-0.5,0 -1,0 -1.5,0c0,0 -0.146454,-0.353554 -0.5,0c-0.353546,0.353554 0,0.5 0,0.5c0,0.5 0.5,1.499992 0.5,2.499992c0,0.5 0,0.5 0.5,0.999992c0,0 -0.229401,-0.34671 -0.5,-0.999992c-0.38269,-0.923882 0,-1.5 0,-1.999992c0,-0.5 0.5,-0.5 0.5,0c0,0 0.229767,0.526741 0,1.499992c-0.256866,1.088127 -1,1.999992 -1,2.999992c0,0 -0.146454,0.853554 -0.5,0.5c-1.414215,-1.414215 0.5,-2.999992 1,-4.499992c0,0 0,-0.499992 0,0.5c0,1.5 0,2.999992 0,3.999992c0,0.999992 -0.5,1.499992 -0.5,1.499992c0,0 0,1.999992 0,2.999992c0,0.5 -0.146454,0.853554 -0.5,0.5c-0.707092,-0.707108 0,-1.5 0,-2.999992c0,-1 0,-1.999992 0.5,-2.499992c0,0 0.038055,-0.191345 0.5,0c0.65329,0.270599 0.743134,0.911873 1,1.999992c0.114868,0.486626 0,1 0,1c0,0.5 0,0.5 0,0.999992c0,0 0,0.5 0,0.5c0,0 0,0 -0.5,0c0,0 0,-0.5 0,-0.999992c0,-0.5 0,-1 0,-1c0.5,0 0.5,0 0.5,-0.5c0,0 0.5,0 1,0c0,0 0.146454,0.353554 0.5,0c0.353546,-0.353554 0.38269,-1.076111 0,-1.999992c-0.270599,-0.653282 -0.146454,-1.146446 -0.5,-1.5c-0.353546,-0.353554 -0.308655,-0.038063 -0.5,-0.499992c-0.270599,-0.653282 -0.5,-1 -0.5,-1.5c0,-0.999992 0,-0.999992 0,-0.999992c0,-0.5 0.5,-0.5 0.5,-1c0,0 0.5,0 0.5,1c0,1.499992 0.38269,2.576111 0,3.499985c-0.270599,0.653282 -0.5,1.5 -0.5,2c0,0.499992 0.353546,0.646439 0,0.999992c-0.353546,0.353554 -0.743134,0.088127 -1,-0.999992c-0.344635,-1.459869 0,-2.5 0,-3.499992c0,-1 0,-1.5 0,-1.999992c0,0 0,-0.5 0,-0.5c0,0 0.243134,0.411873 0.5,1.499992c0.229767,0.973251 0.246735,1.93927 0.5,3.499992c0.160187,0.987091 0,1.499992 0,1.999992c0,0 0,0.5 0,0.5c0,0 0.5,0 0.5,0c0,0.5 0,1 0,1.499992c0,0 0,0.5 0,0.5c-0.5,0 -0.5,0 -0.5,0c0,0 -0.5,0 -0.5,0c0,0 -0.146454,-0.353554 -0.5,0c-0.353546,0.353554 0,0.5 0,0.5c0,0 0,-0.5 0,-1l0,-0.999992" id="svg_35" stroke-width="1.5" stroke="#000" fill="none"/>
 </g>
</svg>