<?xml version="1.0" encoding="utf-8"?>
<!-- Generator: Adobe Illustrator 16.0.0, SVG Export Plug-In . SVG Version: 6.00 Build 0)  -->
<!DOCTYPE svg PUBLIC "-//W3C//DTD SVG 1.1//EN" "http://www.w3.org/Graphics/SVG/1.1/DTD/svg11.dtd">
<svg version="1.1" id="Layer_1" xmlns="http://www.w3.org/2000/svg" xmlns:xlink="http://www.w3.org/1999/xlink" x="0px" y="0px"
	 width="483.048px" height="320.781px" viewBox="0 0 483.048 320.781" enable-background="new 0 0 483.048 320.781"
	 xml:space="preserve">
<circle cx="201.193" cy="-348.813" r="280"/>
<path d="M483.048,211.739c0-25.958-21.124-47-47.182-47H47.181c-26.058,0-47.181,21.042-47.181,47v62.042
	c0,25.957,21.124,47,47.181,47h388.685c26.058,0,47.182-21.043,47.182-47V211.739z"/>
<path fill="#FFFFFF" d="M-217.745,55.904c0,5.127-5.373,9.283-12,9.283h-179.571c-6.627,0-12-4.156-12-9.283V-193.53
	c0-5.127,5.373-9.283,12-9.283h179.571c6.627,0,12,4.156,12,9.283V55.904z"/>
<path d="M-224.245,55.499c0,5.351-6.309,9.688-14.088,9.688l0,0c-7.779,0-14.088-4.338-14.088-9.688v-248.623
	c0-5.351,6.309-9.689,14.088-9.689l0,0c7.779,0,14.088,4.338,14.088,9.689V55.499z"/>
<path fill="#FFFFFF" d="M-236.245,55.904c0,5.127-5.373,9.283-12,9.283h-179.571c-6.627,0-12-4.156-12-9.283V-193.53
	c0-5.127,5.373-9.283,12-9.283h179.571c6.627,0,12,4.156,12,9.283V55.904z"/>
<rect x="-400.031" y="-34.84" width="124" height="52.665"/>
<circle cx="-338.031" cy="-114.868" r="40.64"/>
<path d="M-276.031-30.354c0-19.062-15.452-34.514-34.514-34.514h-54.973c-19.062,0-34.514,15.452-34.514,34.514l0,0
	c0,19.061,15.452,34.514,34.514,34.514h54.973C-291.483,4.16-276.031-11.293-276.031-30.354L-276.031-30.354z"/>
<path d="M483.048,229.747c0,9.216-7.941,16.685-17.74,16.685H17.74c-9.797,0-17.74-7.469-17.74-16.685V16.685
	C0,7.47,7.943,0,17.74,0h447.568c9.799,0,17.74,7.47,17.74,16.685V229.747z"/>
<circle fill="#FFFFFF" cx="133.167" cy="276.662" r="31.229"/>
<line fill="#FFFFFF" stroke="#FFFFFF" stroke-width="25" stroke-miterlimit="10" x1="133.167" y1="294.832" x2="133.167" y2="324"/>
<circle fill="#FFFFFF" cx="344.683" cy="277.662" r="31.229"/>
<line fill="#FFFFFF" stroke="#FFFFFF" stroke-width="25" stroke-miterlimit="10" x1="344.682" y1="294.832" x2="344.682" y2="324"/>
<rect x="49.155" y="160.521" fill="#FFFFFF" width="116.574" height="49.512"/>
<circle fill="#FFFFFF" cx="107.441" cy="95.286" r="38.206"/>
<path fill="#FFFFFF" d="M165.729,164.74c0-17.921-14.527-32.447-32.447-32.447H81.602c-17.92,0-32.447,14.526-32.447,32.447l0,0
	c0,17.918,14.527,32.445,32.447,32.445h51.679C151.202,197.186,165.729,182.658,165.729,164.74L165.729,164.74z"/>
<line fill="#FFFFFF" stroke="#FFFFFF" stroke-width="25" stroke-miterlimit="10" x1="199.586" y1="106.187" x2="439.048" y2="106.187"/>
<line fill="#FFFFFF" stroke="#FFFFFF" stroke-width="25" stroke-miterlimit="10" x1="199.586" y1="159.739" x2="380.048" y2="159.739"/>
</svg>
